<svg width="720" height="150" viewBox="0 0 720 150" fill="none" xmlns="http://www.w3.org/2000/svg">
<path d="M215.12 110H202.4C196.08 110 191.2 108.32 187.76 104.96C184.32 101.6 182.6 96.76 182.6 90.44V52.4C182.6 46.08 184.32 41.24 187.76 37.88C191.2 34.52 196.08 32.84 202.4 32.84H215.12C221.36 32.84 226.2 34.56 229.64 38C233.08 41.36 234.8 46.16 234.8 52.4V56C234.8 57.76 233.96 58.64 232.28 58.64H222.08C220.4 58.64 219.56 57.76 219.56 56V53.12C219.56 50.56 219.04 48.76 218 47.72C216.96 46.6 215.16 46.04 212.6 46.04H204.8C202.32 46.04 200.52 46.6 199.4 47.72C198.36 48.76 197.84 50.56 197.84 53.12V89.72C197.84 92.28 198.36 94.12 199.4 95.24C200.52 96.28 202.32 96.8 204.8 96.8H212.6C215.16 96.8 216.96 96.28 218 95.24C219.04 94.12 219.56 92.28 219.56 89.72V82.16C219.56 81.28 219.12 80.84 218.24 80.84H211.04C209.36 80.84 208.52 80 208.52 78.32V70.16C208.52 68.48 209.36 67.64 211.04 67.64H232.04C233.88 67.64 234.8 68.56 234.8 70.4V90.44C234.8 96.68 233.08 101.52 229.64 104.96C226.2 108.32 221.36 110 215.12 110ZM269.471 110H266.591C260.271 110 255.391 108.32 251.951 104.96C248.511 101.6 246.791 96.76 246.791 90.44V68.36C246.791 62.04 248.511 57.2 251.951 53.84C255.391 50.48 260.271 48.8 266.591 48.8H294.311C296.071 48.8 296.951 49.64 296.951 51.32V107.48C296.951 109.16 296.071 110 294.311 110H284.231C282.551 110 281.711 109.16 281.711 107.48V103.52H281.231C280.351 105.68 278.791 107.32 276.551 108.44C274.311 109.48 271.951 110 269.471 110ZM281.711 87.68V63.32C281.711 62.44 281.231 62 280.271 62H268.991C266.431 62 264.631 62.56 263.591 63.68C262.551 64.72 262.031 66.52 262.031 69.08V89.72C262.031 92.28 262.551 94.12 263.591 95.24C264.631 96.28 266.431 96.8 268.991 96.8H273.431C278.951 96.8 281.711 93.76 281.711 87.68ZM322.82 110H312.62C310.94 110 310.1 109.16 310.1 107.48V51.32C310.1 49.64 310.94 48.8 312.62 48.8H322.82C324.5 48.8 325.34 49.64 325.34 51.32V55.28H325.82C326.78 53.36 328.38 51.8 330.62 50.6C332.94 49.4 335.58 48.8 338.54 48.8H341.9C348.86 48.8 353.86 51.36 356.9 56.48C359.62 51.36 364.3 48.8 370.94 48.8H374.42C380.58 48.8 385.22 50.48 388.34 53.84C391.54 57.2 393.14 62.04 393.14 68.36V107.48C393.14 109.16 392.3 110 390.62 110H380.42C378.74 110 377.9 109.16 377.9 107.48V69.08C377.9 66.52 377.38 64.72 376.34 63.68C375.3 62.56 373.5 62 370.94 62H367.94C362.42 62 359.66 65.08 359.66 71.24V107.48C359.66 109.16 358.78 110 357.02 110H346.94C345.26 110 344.42 109.16 344.42 107.48V69.08C344.42 66.52 343.86 64.72 342.74 63.68C341.7 62.56 339.9 62 337.34 62H333.62C328.1 62 325.34 65.04 325.34 71.12V107.48C325.34 109.16 324.5 110 322.82 110ZM450.962 110H424.442C418.122 110 413.242 108.32 409.802 104.96C406.362 101.6 404.642 96.76 404.642 90.44V68.36C404.642 62.04 406.362 57.2 409.802 53.84C413.242 50.48 418.122 48.8 424.442 48.8H433.922C440.242 48.8 445.122 50.48 448.562 53.84C452.002 57.2 453.722 62.04 453.722 68.36V83.6C453.722 85.28 452.882 86.12 451.202 86.12H421.082C420.122 86.12 419.642 86.56 419.642 87.44V90.08C419.642 92.56 420.162 94.36 421.202 95.48C422.322 96.52 424.162 97.04 426.722 97.04H450.962C452.642 97.04 453.482 97.92 453.482 99.68V107.6C453.482 108.48 453.282 109.12 452.882 109.52C452.562 109.84 451.922 110 450.962 110ZM421.082 75.92H437.402C438.282 75.92 438.722 75.48 438.722 74.6V68.84C438.722 66.28 438.202 64.48 437.162 63.44C436.122 62.4 434.322 61.88 431.762 61.88H426.722C424.162 61.88 422.362 62.4 421.322 63.44C420.282 64.48 419.762 66.28 419.762 68.84V74.6C419.762 75.48 420.202 75.92 421.082 75.92ZM477.859 110H467.659C465.979 110 465.139 109.16 465.139 107.48V51.32C465.139 49.64 465.979 48.8 467.659 48.8H477.859C479.539 48.8 480.379 49.64 480.379 51.32V55.28H480.859C482.619 50.96 486.539 48.8 492.619 48.8H496.459C509.019 48.8 515.299 55.32 515.299 68.36V107.48C515.299 109.16 514.419 110 512.659 110H502.579C500.899 110 500.059 109.16 500.059 107.48V69.08C500.059 66.52 499.499 64.72 498.379 63.68C497.339 62.56 495.539 62 492.979 62H488.659C483.139 62 480.379 65.04 480.379 71.12V107.48C480.379 109.16 479.539 110 477.859 110ZM557.232 110H546.552C540.232 110 535.352 108.32 531.912 104.96C528.472 101.6 526.752 96.76 526.752 90.44V68.36C526.752 62.04 528.472 57.2 531.912 53.84C535.352 50.48 540.232 48.8 546.552 48.8H557.232C563.472 48.8 568.312 50.52 571.752 53.96C575.272 57.32 577.032 62.12 577.032 68.36V90.44C577.032 96.68 575.272 101.52 571.752 104.96C568.312 108.32 563.472 110 557.232 110ZM548.832 96.92H554.952C557.512 96.92 559.312 96.4 560.352 95.36C561.472 94.32 562.032 92.52 562.032 89.96V68.84C562.032 66.28 561.472 64.48 560.352 63.44C559.312 62.4 557.512 61.88 554.952 61.88H548.832C546.272 61.88 544.472 62.4 543.432 63.44C542.392 64.48 541.872 66.28 541.872 68.84V89.96C541.872 92.52 542.392 94.32 543.432 95.36C544.472 96.4 546.272 96.92 548.832 96.92ZM612.166 110H589.366C587.766 110 586.966 109.16 586.966 107.48V99.8C586.966 98.92 587.126 98.32 587.446 98C587.766 97.6 588.406 97.4 589.366 97.4H609.406C613.326 97.4 615.286 96.2 615.286 93.8V93.2C615.286 91.28 613.646 89.44 610.366 87.68L598.486 81.08C594.406 79 591.406 76.76 589.486 74.36C587.566 71.96 586.606 68.88 586.606 65.12C586.606 59.52 588.086 55.4 591.046 52.76C594.006 50.12 598.646 48.8 604.966 48.8H625.006C626.606 48.8 627.406 49.64 627.406 51.32V59.12C627.406 60 627.246 60.64 626.926 61.04C626.606 61.36 625.966 61.52 625.006 61.52H608.326C604.406 61.52 602.446 62.52 602.446 64.52V65.12C602.446 66.88 604.166 68.68 607.606 70.52L619.726 77.72C623.886 79.96 626.806 82.28 628.486 84.68C630.166 87 631.006 90.08 631.006 93.92C631.006 104.64 624.726 110 612.166 110ZM642.223 38.48V28.04C642.223 26.44 643.023 25.64 644.623 25.64H655.063C656.663 25.64 657.463 26.4 657.463 27.92V38.48C657.463 40.08 656.663 40.88 655.063 40.88H644.623C643.023 40.88 642.223 40.08 642.223 38.48ZM642.223 107.48V51.32C642.223 49.64 643.023 48.8 644.623 48.8H654.943C656.623 48.8 657.463 49.64 657.463 51.32V107.48C657.463 108.52 657.263 109.2 656.863 109.52C656.543 109.84 655.943 110 655.063 110H644.743C643.063 110 642.223 109.16 642.223 107.48ZM694.432 110H671.632C670.032 110 669.232 109.16 669.232 107.48V99.8C669.232 98.92 669.392 98.32 669.712 98C670.032 97.6 670.672 97.4 671.632 97.4H691.672C695.592 97.4 697.552 96.2 697.552 93.8V93.2C697.552 91.28 695.912 89.44 692.632 87.68L680.752 81.08C676.672 79 673.672 76.76 671.752 74.36C669.832 71.96 668.872 68.88 668.872 65.12C668.872 59.52 670.352 55.4 673.312 52.76C676.272 50.12 680.912 48.8 687.232 48.8H707.272C708.872 48.8 709.672 49.64 709.672 51.32V59.12C709.672 60 709.512 60.64 709.192 61.04C708.872 61.36 708.232 61.52 707.272 61.52H690.592C686.672 61.52 684.712 62.52 684.712 64.52V65.12C684.712 66.88 686.432 68.68 689.872 70.52L701.992 77.72C706.152 79.96 709.072 82.28 710.752 84.68C712.432 87 713.272 90.08 713.272 93.92C713.272 104.64 706.992 110 694.432 110Z" fill="#4F80E1"/>
<path fill-rule="evenodd" clip-rule="evenodd" d="M145.3 48.8078C141.55 52.305 136.919 54.8683 131.775 56.127C133.865 62.1999 135 68.7174 135 75.5C135 108.361 108.361 135 75.5 135C68.2974 135 61.3937 133.72 55.0039 131.376C53.0901 136.388 49.892 140.767 45.8119 144.108C54.7834 147.902 64.6467 150 75 150C116.421 150 150 116.421 150 75C150 65.7869 148.339 56.9617 145.3 48.8078ZM102.621 5.2499C94.073 1.86198 84.754 0 75 0C33.5786 0 0 33.5786 0 75C0 83.6627 1.46867 91.9824 4.17059 99.7237C7.89603 95.7215 12.6845 92.7222 18.0865 91.1752C16.7261 86.181 16 80.9253 16 75.5C16 42.6391 42.6391 16 75.5 16C82.2826 16 88.8001 17.1349 94.873 19.2251C96.1826 13.8734 98.9045 9.07584 102.621 5.2499Z" fill="#FF7FEF"/>
<path fill-rule="evenodd" clip-rule="evenodd" d="M94.0771 29.6851C88.3554 27.3106 82.0807 26 75.5 26C48.7142 26 27 47.7142 27 74.5C27 80.3658 28.0413 85.9883 29.9492 91.1929C44.4567 92.8257 55.8838 104.636 56.9229 119.315C62.6446 121.689 68.9193 123 75.5 123C102.286 123 124 101.286 124 74.5C124 68.6342 122.959 63.0117 121.051 57.8071C106.543 56.1743 95.1162 44.3644 94.0771 29.6851Z" fill="#4F80E1"/>
<circle cx="25.5" cy="121.5" r="22.5" fill="#4F80E1"/>
<circle cx="125.5" cy="26.5" r="22.5" fill="#4F80E1"/>
</svg>
